# xmcd
#
# Track frame offsets:
#	151
#	22018
#	40495
#	52101
#	77301
#	94966
#	115556
#	156958
#	170382
#	192119
#	244677
#	262393
#	285046
#
# Disc length: 4260 seconds
#
# Revision: 0
# Processed by: cddbd v1.5.1PL2 Copyright (c) Steve Scherf et al.
# Submitted via: dBpowerAMP V4.0
#
DISCID=a810a20d
DTITLE=Sister Renetha - The Highest Praise
DYEAR=1900
DGENRE=Gospel
TTITLE0=Highest Praise
TTITLE1=Lord I'll Praise You
TTITLE2=Awesome are You
TTITLE3=He Who Dwells/Psalms 91
TTITLE4=Beauty of His Holiness
TTITLE5=Praise In the House
TTITLE6=Worship Medley Vol I
TTITLE7=Praise to the King
TTITLE8=Deep Down in My Heart
TTITLE9=Worship Medley Vol II
TTITLE10=We Lift Your Name Higher
TTITLE11=See What the Lord has Done for Us
TTITLE12=Altogether Lovely, My Beloved
EXTD=
EXTT0=
EXTT1=
EXTT2=
EXTT3=
EXTT4=
EXTT5=
EXTT6=
EXTT7=
EXTT8=
EXTT9=
EXTT10=
EXTT11=
EXTT12=
PLAYORDER=
